<svg id="Layer_1" data-name="Layer 1" xmlns="http://www.w3.org/2000/svg" viewBox="0 0 325.62 116.28"><defs><style>.cls-1{fill:#047945;}.cls-2{fill:#117b48;}.cls-3{fill:#1a406d;}.cls-4{fill:#fbd036;}.cls-5{fill:#1f4470;}</style></defs><title>logo</title><path class="cls-1" d="M127.4,59.75c.19.63.94.81,1.25,1.47H19L37.1,40.48c3.73-4.27,7.36-8.63,11.22-12.78,3-3.25,5.88-6.63,8.81-9.95.55-.63.88-.62,1.52-.1q9.67,7.76,19.4,15.45a13.18,13.18,0,0,0,1.71,1c2.68,2.15,5.37,4.29,8,6.47.52.43.84.17,1.24-.12l8.67-6.22c.43-.31.75-.6,1.32-.08,4.32,3.91,8.69,7.77,13,11.67Q119.74,52.77,127.4,59.75Z" transform="translate(-19 -11.33)"/><path class="cls-2" d="M291.17,85.78c.85-.82,1.7-1.63,2.54-2.46q6.41-6.31,12.8-12.64c.82-.82,1.63-1.65,1.47-3-.09-.76.53-.68,1-.62a40.53,40.53,0,0,0,5.51.17c.71,0,1.43-.1,2.14-.18.54-.06.85.1.82.71s.11,1-.67,1c-3.26-.29-5.43,1.61-7.61,3.65-4.14,3.87-8.35,7.67-12.57,11.46-.81.72-.28,1.05.18,1.5q7.47,7.09,14.93,14.22a44.67,44.67,0,0,0,4.61,4.19c1.13.8,1.29.69,1.47-.62a44.06,44.06,0,0,0,.2-5.74c0-.59-.11-1.11.8-1.06.74,0,1.35,0,1.36,1,0,.67.22,1.35.2,2a3.77,3.77,0,0,0,1.82,3.19c4,3,10.85,2.77,14.65-.51,3.35-2.9,3.56-8.66.37-11.25a11.87,11.87,0,0,0-5.89-2.15,43.92,43.92,0,0,1-7-1.28c-6.51-2.11-8.34-6.37-6.3-12.64,1.21-3.73,4.13-6.1,7.8-7.51,5.3-2,10.39-1,15.42,1,.5.2.59.52.49,1a30.34,30.34,0,0,0-.64,6.3c0,.57-.11.89-.79.84s-1.13,0-1.14-.81c0-.64-.18-1.27-.16-1.9.07-2.26-1.33-3.44-3.14-4.22a11.19,11.19,0,0,0-8.63-.41,7.94,7.94,0,0,0-4.77,9.58c.59,2.28,2.37,3.41,4.46,4.12A41,41,0,0,0,333.91,84a22.89,22.89,0,0,1,5,1.28c4.11,1.64,5.8,5,5.18,9.4-1,6.9-6.28,10.62-12.21,11.93a21.18,21.18,0,0,1-11.75-.81c-.76-.27-1,.37-1.55.32a55.18,55.18,0,0,0-7.16,0c-.62,0-.94-.4-1.3-.75L295.13,90.84l-3.1-3c-.22-.21-.42-.55-.79-.35s-.34.52-.33.85c.1,4.63-.21,9.27.17,13.9.1,1.2.61,2,1.91,2,.87,0,1.75.2,2.62.19s.77.44.79,1-.28.75-.8.72c-2.27-.14-4.55,0-6.83-.2-.9-.09-1.82.11-2.74.11-3.62,0-7.25,0-10.87.09a1.5,1.5,0,0,1-1.37-.72Q267.36,96.72,260.86,88a10,10,0,0,0-1.74-2c-.72-.55-.19-.7.17-.87a4.53,4.53,0,0,1,2-.13,11.37,11.37,0,0,0,6-1.34,7.92,7.92,0,0,0,1.89-12.46,8.16,8.16,0,0,0-4.79-2,24.45,24.45,0,0,0-6.56.28c-.9.14-1.14.54-1.14,1.42,0,9.8,0,19.59,0,29.39,0,.52,0,1,0,1.56.11,1.68.56,2.14,2.26,2.31.79.07,1.59.17,2.38.17s1,.2,1,1-.41.8-1,.77c-6.66-.3-13.33.15-20-.09-2.79-.1-5.57.14-8.36.1-.54,0-1,.06-1-.77s.27-.95,1-1a16,16,0,0,0,2.5-.22c1.31-.22,1.68-.77,1.22-2-1.06-2.86-2.21-5.69-3.31-8.54a.8.8,0,0,0-.9-.56H217.62a.9.9,0,0,0-1,.66c-1.06,2.61-2.2,5.19-3,7.89-.52,1.72-.1,2.33,1.7,2.58a15.44,15.44,0,0,0,1.91.19c.72,0,.94.26.94,1s-.51.75-1,.73c-3.63-.1-7.26-.14-10.88,0-.51,0-.93,0-.92-.7s.09-1.08.88-1c2.24.17,3.44-1.11,4.24-3,4.85-11.38,10-22.61,14.66-34.07a1.09,1.09,0,0,1,1.14-.81c.73,0,1,.3,1.31.93,5,10.75,9.27,21.85,14.06,32.71,2,4.57,2.29,4.54,7.44,4.09,1.73-.15,2.11-.69,2.19-2.51.39-9.24.09-18.47.17-27.71a29.8,29.8,0,0,0-.19-3c-.13-1.44-.68-1.95-2.12-2.1a15.26,15.26,0,0,0-1.9-.18c-.75,0-1-.19-1-1s.67-.75,1.17-.72c4.19.21,8.39.23,12.58.18,2.28,0,4.55-.17,6.83-.18a14.94,14.94,0,0,1,4.68.8c5.94,1.94,6.6,8.31,4.21,12.35-1.86,3.14-4.82,4.79-8.2,5.78-1.38.41-1.4.39-.56,1.49l11.58,15.26a4.77,4.77,0,0,0,5.73,1.31,1.74,1.74,0,0,0,.91-1.2,9,9,0,0,0,.22-2.25V72.76c0-.36,0-.72,0-1.08-.1-2.13-.59-2.62-2.74-2.76-.6,0-1.2-.15-1.79-.14-.74,0-1-.27-.94-1s.52-.77,1.06-.73c3.79.32,7.59.18,11.38.17,1.07,0,2.15-.1,3.22-.18.58,0,.88.1.89.78s-.09,1-.82,1-1.59.1-2.38.16c-1.48.12-1.94.6-2.14,2.07a24.72,24.72,0,0,0-.17,3.22q0,5.7,0,11.38ZM225,74.37c-.49.23-.45.61-.56.89-2.07,4.86-4.1,9.73-6.16,14.59-.28.65-.39,1,.55,1,4.15,0,8.31,0,12.46,0,.75,0,.77-.24.51-.82-1-2.34-2-4.71-3.12-7C227.34,80.17,226.23,77.23,225,74.37Z" transform="translate(-19 -11.33)"/><path class="cls-3" d="M282.12,28.87c3-3.48,6.57-4.3,10.59-3.63a5.61,5.61,0,0,1,4.73,3.8,8.55,8.55,0,0,1,6.14-3.88,9.08,9.08,0,0,1,6.14.92c2.58,1.47,3.21,4,3.22,6.66q0,13,0,25.91c0,1.56,0,1.56,1.57,1.62.35,0,.84-.19.86.49s-.48.5-.83.5q-5.94,0-11.88,0c-.33,0-.86.26-.9-.43s.41-.6.81-.56c.7.08.76-.32.76-.87,0-9.6,0-19.2,0-28.8,0-1.13,0-2.41-1.45-2.86-1.07-.34-2.35.35-3.17,1.66a5.34,5.34,0,0,0-.89,2.93q0,13.5,0,27c0,.69.13,1.07.91.94.4-.06.7,0,.69.56s-.36.43-.67.43H287c-.39,0-.7,0-.68-.56s.35-.48.66-.44c.95.14,1-.39,1-1.14,0-9.15,0-18.31,0-27.47a15.46,15.46,0,0,0-.18-2c-.25-1.92-1.78-2.58-3.38-1.44a5.41,5.41,0,0,0-2.09,4.63c0,8.88,0,17.76,0,26.63,0,.64.23.85.84.83.4,0,1-.19.94.54s-.57.43-.9.44c-4,0-8.09.15-12.11-.08a10.64,10.64,0,0,0-3.27.46,11.39,11.39,0,0,1-8.86-1.22,3.76,3.76,0,0,1-1.38-1.79c-2.19,3.58-5.64,3.68-9.06,3.22-4.09-.55-5.66-2.32-6.23-6.65a20.29,20.29,0,0,1,.23-7.16c1-4.26,4-6.46,7.92-7.67a34.22,34.22,0,0,1,5.74-1.19c.54-.07.9-.17.87-.84-.1-3,.17-6.07-.18-9.11-.26-2.18-1.06-2.95-3.23-3a9.68,9.68,0,0,0-5.38,1.4A2.68,2.68,0,0,0,246.83,29c.87,0,1.67,0,2.48,0a4.64,4.64,0,0,1,2.32.48c2.45,1.28,2.63,4.11.26,5.55a6.66,6.66,0,0,1-6.85.06c-1.93-1-2.26-3.72-.85-5.79a8.18,8.18,0,0,1,4.08-3,21,21,0,0,1,13-.64c3.8,1,5.55,3.53,5.55,7.49q0,12.12,0,24.24c0,.87-.27,2,1,2.27.91.23,1.73-.41,2.23-1.76a7.82,7.82,0,0,0,.51-2.08c.06-.79.49-.88,1.1-.8.86.11.44.76.38,1.11a7.49,7.49,0,0,1-1.64,4,1.89,1.89,0,0,0,.47.15c1.74.12,1.74.12,1.74-1.64,0-10.19,0-20.39,0-30.59,0-1.16-.21-1.74-1.47-1.49a3.81,3.81,0,0,1-.48,0c-.34,0-.64,0-.63-.51s.24-.53.62-.52h3.48c2.28,0,4.56,0,6.84,0,.94,0,1.19.29,1.11,1.16C282.07,27.27,282.12,27.9,282.12,28.87ZM257,49V42.53c0-2.5,0-2.5-2.5-1.7-1.87.6-2.72,1.49-2.74,3.16,0,4.51,0,9,0,13.53A1.57,1.57,0,0,0,253,59.2c2,.43,3.5.08,3.82-2.31C257.18,54.1,256.84,51.31,257,49Z" transform="translate(-19 -11.33)"/><path class="cls-3" d="M226.09,27.64a6.67,6.67,0,0,1,5.29-2.6c4.36-.14,7.34,2.18,8.84,6.75a32.84,32.84,0,0,1,1.31,10,46.24,46.24,0,0,1-1.09,11.78,13.52,13.52,0,0,1-2.7,5.65c-2.53,3-7.45,3-10,1.73a6.69,6.69,0,0,1-2.1-2.17c-.31.06-.25.25-.25.39,0,2.06,0,2.06-2.06,2.06-2.88,0-5.77.12-8.63-.05a17.68,17.68,0,0,0-4.33.61,11.48,11.48,0,0,1-6.22-.56,4.55,4.55,0,0,1-2.9-2.85c-1,2.45-3,3-5.08,3.37a12.05,12.05,0,0,1-6.25-.38A5.85,5.85,0,0,1,186.06,57a20,20,0,0,1-.21-8.44c.76-4.19,3.44-6.61,7.3-7.94a27.59,27.59,0,0,1,6.53-1.41c.68-.06,1-.2,1-1-.05-2.71,0-5.44,0-8.15-.05-3-1.07-3.93-4.05-3.84a8.69,8.69,0,0,0-6.4,2.67,2.28,2.28,0,0,0,1.37.17c.52,0,1,0,1.56,0,2.08.05,3.78,1.34,3.94,3s-1.23,3.34-3.31,3.79a8.35,8.35,0,0,1-3.69-.06c-3-.68-4.12-3.61-2.43-6.25a8.91,8.91,0,0,1,5.45-3.62,21.5,21.5,0,0,1,11.9-.15c3.58,1,5.3,3.42,5.3,7.16V56.64c0,.55.06,1.11.11,1.67s.13,1.24.9,1.37a1.73,1.73,0,0,0,1.78-.76,5.35,5.35,0,0,0,1-3c0-.93.56-.9,1.18-.86.87.07.32.66.31,1a8.46,8.46,0,0,1-1.49,4.07c.4.28.77.12,1.11.18.83.13,1.07-.21,1.07-1.05q0-22.86,0-45.72c0-.77-.19-1.1-1-1a4.87,4.87,0,0,1-1.08,0c-.35,0-.83.2-.84-.49s.5-.59.9-.59h7.92c.88,0,1.76.05,2.64,0s1.07.21,1.07,1.06c0,4.6,0,9.2,0,13.79v1.18Zm5.33,15.51c0-1.52,0-3,0-4.56,0-3.24,0-6.47-.09-9.7,0-.86-.15-1.75-1.21-1.94a2.93,2.93,0,0,0-3.24,1.28,6.13,6.13,0,0,0-1.06,3.48q0,12,0,24.09a5.71,5.71,0,0,0,.22,1.65,2.94,2.94,0,0,0,3.58,2.21c1.37-.18,1.8-.84,1.8-2.85C231.43,52.26,231.42,47.7,231.42,43.15Zm-30.8,5.66h0V41.14c0-.39.09-.77-.57-.77-3.3,0-4.92,1.62-4.92,4.94,0,3.76,0,7.52,0,11.28,0,2.18.75,2.87,2.92,2.74,1.67-.1,2.52-1,2.55-3C200.66,53.85,200.62,51.33,200.62,48.81Z" transform="translate(-19 -11.33)"/><path class="cls-4" d="M127.4,59.75q-7.68-7-15.36-13.93c-4.33-3.9-8.7-7.76-13-11.67-.57-.52-.89-.23-1.32.08L89,40.45c-.4.29-.72.55-1.24.12-2.66-2.18-5.35-4.32-8-6.47A26.73,26.73,0,0,1,96.43,16.92c16.3-6.06,33.65,4.79,36.2,21.64a27.49,27.49,0,0,1-4.57,20.19Z" transform="translate(-19 -11.33)"/><path class="cls-2" d="M169.84,96.77c-.55,2.86-.76,5.64-1.06,8.41-.07.67-.28.88-.93.9-6.91.14-13.83.07-20.74,0-2.16,0-4.3.15-6.45.11-.52,0-1,.1-1-.75s.21-1,.94-1a6.85,6.85,0,0,0,1.43-.12c2-.3,2.44-.77,2.44-2.81q0-14.88,0-29.75a3,3,0,0,0-4.12-2.93c-.44.16-.38.55-.39.91,0,1.83-.11,3.67-.09,5.51,0,.76-.23,1-.95.92s-1.2.11-1.17-.87a17.9,17.9,0,0,0-.16-3.58c-.26-1.51-.54-1.85-2.06-1.91s-2.88,0-4.32,0H130c-3.36,0-3.45,0-3.47,3.37,0,9.15,0,18.31,0,27.47a.48.48,0,0,0,0,.12c.19,3.24.51,3.55,3.77,3.69a9.84,9.84,0,0,0,1.08,0c.8-.06.63.49.67,1s-.17.79-.75.75c-2.31-.16-4.62-.08-6.94-.19s-4.94.11-7.42.17c-.55,0-1.2.25-1.23-.78s.53-.9,1.14-.93a19.63,19.63,0,0,0,2-.16c1.79-.25,2.21-.72,2.32-2.54,0-.76.07-1.52.07-2.28q0-13.9-.08-27.83c0-1.85,0-1.85-1.82-1.85-2.2,0-4.4,0-6.6,0-2,0-2.54.51-2.61,2.53a27.4,27.4,0,0,0-.15,2.86c.08,1.11-.59.93-1.27,1-.87.07-.71-.49-.72-1-.09-2.35-.14-4.71-.3-7.06-.06-.88.2-1.08,1-1q11.2.38,22.42.18c3.75-.07,7.51-.3,11.25-.1,4,.22,8.08.2,12.11.08,3.75-.11,7.5-.15,11.26-.1a11.42,11.42,0,0,1,1.3.12c1.64.19,1.66.19,1.32,1.74a39.83,39.83,0,0,0-.56,6.07c-.06.88-.5.78-1.08.82s-.89-.25-.87-.91c0-1.08,0-2.16,0-3.24a1.16,1.16,0,0,0-1-1.28,24.18,24.18,0,0,0-6.86-1,43,43,0,0,0-7.18.17c-.78.12-1.08.37-1.07,1.2,0,4.4,0,8.8,0,13.2,0,.42-.12.94.58.93a84.14,84.14,0,0,0,10.77-.17,1.44,1.44,0,0,0,1.43-1.46c.07-.79.15-1.59.2-2.38s.35-.93,1.07-.91.75.55.71,1c-.26,3-.16,6.07-.12,9.11,0,.55.1,1.11.12,1.66s.14,1-.65,1-1.05-.09-1.1-.84c-.05-1-.22-2-.27-3a1.32,1.32,0,0,0-1.27-1.33c-3.54-.53-7.1-.23-10.65-.24-.56,0-.84.28-.84.9,0,4.76,0,9.52,0,14.28,0,.76.45.83,1,.91a45.56,45.56,0,0,0,6.71.19,67.52,67.52,0,0,0,6.82-.3,2.46,2.46,0,0,0,2.42-1.93,17.24,17.24,0,0,0,.76-3.35c.07-1.25.57-1.6,1.69-1.41A5.36,5.36,0,0,0,169.84,96.77Z" transform="translate(-19 -11.33)"/><path class="cls-5" d="M315.8,122.7a22.45,22.45,0,0,1-13.48-4.25c-3-2.08-6.17-3.85-9.91-4.26-4.47-.49-8.76,0-12.74,2.27a63.12,63.12,0,0,1-7.38,4.19c-7.42,3.1-14.65,2.91-21.63-1.32-2.42-1.47-4.75-3.14-7.47-4-7.12-2.29-13.93-1.79-20.26,2.5a25.34,25.34,0,0,1-10.06,4.52,24.71,24.71,0,0,1-13.05-1.16,27.83,27.83,0,0,1-6.24-3.48c-4.85-3.46-10.28-4.07-16-3.5a24.87,24.87,0,0,0-12.42,4.89,17.26,17.26,0,0,1-11.74,3.62,24.67,24.67,0,0,1-10-3.06c-2.25-1.2-4.5-2.38-6.8-3.48a19.43,19.43,0,0,0-18.21.22c-1.91,1-3.79,2-5.69,3A26.81,26.81,0,0,1,102,122.7a20.38,20.38,0,0,1-12-3.28c-3-1.81-6-3.79-9.42-4.61-6.89-1.64-13.38-1-19.28,3.34a22.33,22.33,0,0,1-9.43,4.18,21.44,21.44,0,0,1-14.69-2.22c-1.77-1-3.49-2.09-5.26-3.11a20.38,20.38,0,0,0-10.48-2.93c-.79,0-1-.23-1-1s.32-1,1-.93A23.83,23.83,0,0,1,33,115.44c2.49,1.42,4.81,3.19,7.53,4.14a20.07,20.07,0,0,0,17.81-1.82,47.52,47.52,0,0,1,7.48-4.24,25.19,25.19,0,0,1,11.39-1.24c4.69.39,8.7,2.41,12.59,4.8a22.78,22.78,0,0,0,8,3.46,19.62,19.62,0,0,0,10.22-1.1,66.35,66.35,0,0,0,8.23-4.09c3.93-2.07,8-3.46,12.56-3.23a25.58,25.58,0,0,1,9,2.44c3.18,1.39,6.06,3.36,9.28,4.67,5.91,2.39,11.59,2.3,16.88-1.65a26.26,26.26,0,0,1,12-5.09c6.43-.94,12.64-.49,18.24,3.3,3,2.07,6.18,4,9.88,4.61,5.35.93,10.49.4,15.22-2.52,2.68-1.65,5.21-3.61,8.25-4.54a24.73,24.73,0,0,1,19.77,1.73c1.47.8,2.88,1.71,4.32,2.57,7.36,4.44,14.76,4.15,22.16.12,2.72-1.48,5.22-3.42,8.19-4.42a22,22,0,0,1,18.75,1.8c1.17.68,2.29,1.45,3.44,2.17,7.28,4.6,14.7,4.67,22.24.69,2.92-1.54,5.67-3.41,8.8-4.55a20.26,20.26,0,0,1,6.75-1.33c.62,0,.89.14.8.79s.24,1.16-.73,1.15c-4.15,0-7.76,1.63-11.24,3.67s-6.76,3.94-10.69,4.62A18.47,18.47,0,0,1,315.8,122.7Z" transform="translate(-19 -11.33)"/><path class="cls-5" d="M289,119.11c-4-.2-7.75,1.3-11.27,3.5-3.11,1.94-6.29,3.75-10,4.45-6.32,1.2-12.26.43-17.74-3.13a26.92,26.92,0,0,0-8.47-4.1c-6.52-1.49-12.75-1-18.47,2.87a25.76,25.76,0,0,1-8.07,4.06c-7,1.67-13.66,1-19.8-3-2.84-1.86-5.7-3.73-9.15-4.25a28.34,28.34,0,0,0-16.5,2,66.46,66.46,0,0,0-6.13,3.7c-5.26,3.15-10.73,3-16.31,1.09a55.48,55.48,0,0,1-6.77-3.27,37.16,37.16,0,0,0-8.25-3.4c-5.43-1.25-10.42,0-15.21,2.57a54.53,54.53,0,0,1-8.82,4.22,20.8,20.8,0,0,1-18-1.91c-3.17-1.9-6.31-3.94-10-4.7-6.23-1.28-12.21-1-17.7,2.7-3,2-6,3.9-9.64,4.6-6.1,1.19-11.86.49-17.21-2.88-2.9-1.82-5.82-3.64-9.23-4.42a18.63,18.63,0,0,0-5-.62c-.89,0-.88-.41-.93-1.08s.28-.89,1-.88a25.16,25.16,0,0,1,13.07,4.1c2.5,1.56,5,3.23,7.94,3.84,5.66,1.16,11.1.73,16.12-2.43C61.19,121,63.8,119,67,118.14a26.17,26.17,0,0,1,20.34,2.5c1.57.89,3.1,1.83,4.67,2.71,5.18,2.91,10.54,2.94,16,1a48.88,48.88,0,0,0,7.31-3.56c4.15-2.28,8.47-3.88,13.31-3.63a24.23,24.23,0,0,1,7.77,1.79c3.38,1.35,6.44,3.34,9.74,4.84a19,19,0,0,0,12.94,1.26,14.66,14.66,0,0,0,4.86-2.53c7.18-5.21,15.15-6.39,23.67-4.65a21,21,0,0,1,7.41,3.49,22.15,22.15,0,0,0,9.27,4c5.62.77,11,.25,15.83-3,2.58-1.73,5.17-3.49,8.25-4.25,6.76-1.68,13.28-1.22,19.43,2.3,2.53,1.45,4.88,3.27,7.68,4.16a22.3,22.3,0,0,0,19.18-2.32c2.73-1.66,5.38-3.5,8.52-4.28,6.35-1.57,12.42-1,18.07,2.55,2.17,1.35,4.21,3,6.64,3.81a22.06,22.06,0,0,0,18.6-1.38c3.29-1.8,6.41-3.9,10.08-4.92a23.54,23.54,0,0,1,5.42-.83c.59,0,.82.17.69.73s.38,1.2-.63,1.2c-4.22,0-7.91,1.64-11.48,3.68-3,1.75-6.06,3.57-9.57,4.25-6.33,1.23-12.33.53-17.84-3.07-2.57-1.68-5.11-3.42-8.16-4.18A22.06,22.06,0,0,0,289,119.11Z" transform="translate(-19 -11.33)"/><path class="cls-3" d="M158.41,61.27h-8.52c-.33,0-.85.23-.86-.47s.47-.5.83-.52c.2,0,.4,0,.6,0,2.53,0,2.51,0,2.08-2.43q-.49-2.82-.89-5.66c-.1-.75-.33-1.1-1.18-1.08-3.08,0-6.16,0-9.24,0-.67,0-1,.06-1.16.91-.27,2-.73,3.91-1.11,5.86-.17.87.39,1.33,1,1.7a7.29,7.29,0,0,0,2.53.67c.38.06.83-.06.78.59s-.47.43-.78.43q-4.68,0-9.35,0c-.28,0-.67.15-.7-.39s.18-.63.62-.64c2.33-.08,3.3-1.49,3.73-3.62C137.34,54,138,51.49,138.7,49c3.41-12.09,6-24.39,9.06-36.56.21-.83.54-1,1.29-1,1.63.05,3.28.08,4.91,0,.84,0,1.09.31,1.23,1q1.45,7.7,2.95,15.37,3,15.66,6,31.31c.17.89.5,1.33,1.47,1.17a10.14,10.14,0,0,1,1.56,0c.34,0,.63,0,.66.48s-.34.53-.7.53Zm-11.62-35.9c-.23.2-.32.24-.34.3q-2.88,11.82-5.77,23.64c-.17.71.2.69.69.69q4.5,0,9,0c.61,0,.81-.08.67-.8-.64-3.32-1.19-6.66-1.77-10C148.45,34.64,147.63,30.06,146.79,25.37Z" transform="translate(-19 -11.33)"/><path class="cls-3" d="M319.52,29c1.06,0,2,0,3,0a3.84,3.84,0,0,1,3.78,2.9c.22,1.56-.89,3.06-2.79,3.68a8.06,8.06,0,0,1-5.5-.26,3.6,3.6,0,0,1-2-4.25c.53-2.42,2.32-3.63,4.39-4.51a20.51,20.51,0,0,1,14-.78c3.31,1,5,3.62,5,7.44q0,12,0,24c0,.32,0,.64,0,1,0,.63.1,1.23.82,1.44a1.57,1.57,0,0,0,1.72-.56,5.86,5.86,0,0,0,1.14-3c.06-.36-.11-1,.5-1.06s1.23-.09,1.08.93c-.54,3.95-2.82,6-6.86,6a11.84,11.84,0,0,1-4.68-.72,4.62,4.62,0,0,1-2.88-2.82,5.53,5.53,0,0,1-4.59,3.31,14.77,14.77,0,0,1-5.81-.14,6,6,0,0,1-4.86-5.11,20.18,20.18,0,0,1,0-8.44,9.05,9.05,0,0,1,5.27-6.54,29.06,29.06,0,0,1,8.61-2.35c.62-.09.93-.23.91-.93-.1-3,.13-5.91-.19-8.86-.26-2.35-1.08-3.15-3.46-3.17a9.54,9.54,0,0,0-5.13,1.39A3,3,0,0,0,319.52,29ZM329.7,49V42.5c0-2.48,0-2.48-2.43-1.71-2.09.67-2.7,1.38-2.82,3.59-.1,1.75-.09,3.51-.09,5.26,0,2.64.05,5.27.08,7.9a1.53,1.53,0,0,0,1.06,1.58c1.78.53,3.71.36,4-2.26C329.86,54.07,329.58,51.28,329.7,49Z" transform="translate(-19 -11.33)"/><path class="cls-5" d="M181.8,36c0,7.67,0,15.35,0,23,0,1.07.27,1.39,1.33,1.33.5,0,1.52-.52,1.51.49s-1,.44-1.54.45c-4.23,0-8.47,0-12.71,0-.35,0-1,.29-.94-.51s.62-.47,1-.48c1.73-.05,1.73,0,1.73-1.83q0-22.24,0-44.49c0-1.12-.2-1.56-1.41-1.47-.48,0-1.55.64-1.54-.52s1-.49,1.51-.5c3.32-.05,6.64,0,9.95-.05.92,0,1.14.26,1.13,1.15C181.79,20.35,181.8,28.15,181.8,36Z" transform="translate(-19 -11.33)"/><path class="cls-2" d="M91.19,93.1c-2.36,0-4.72,0-7.08,0a1,1,0,0,0-1.17.73c-1,2.54-2.13,5-2.94,7.66-.58,1.89-.22,2.47,1.71,2.74a15.13,15.13,0,0,0,1.78.19c.65,0,1,.14,1,.94s-.54.81-1.1.79c-3.66-.1-7.33-.15-11,0-.55,0-1,.06-1-.76s.22-1,1-1c2,.14,3.2-.89,4-2.61,5-10.65,9.6-21.44,14.22-32.24.27-.62.53-1.25.76-1.88s.35-1.14,1.24-1.16,1.13.52,1.4,1.16q6.48,15.38,13,30.75a16.87,16.87,0,0,0,2.35,4.51,3.25,3.25,0,0,0,2.7,1.47c.69,0,1.24,0,1.2,1s-.78.73-1.29.72c-4.14-.12-8.29-.11-12.43,0-.5,0-1.32.47-1.4-.7s.77-.93,1.42-1,1.43-.11,2.14-.23c1.17-.21,1.59-.78,1.19-1.85-1.09-2.94-2.29-5.83-3.41-8.75-.22-.6-.64-.49-1.06-.49ZM91.26,74,84.17,90.82c4.56,0,9,0,13.34,0,.94,0,.56-.49.39-.91Z" transform="translate(-19 -11.33)"/><path class="cls-2" d="M194.25,85.49a12.13,12.13,0,0,0,5.43.33c4.61-.88,7-5.42,6.35-9.56-.68-4.55-3.17-6.74-7.78-7a23,23,0,0,0-6.08.38c-.71.15-1,.39-1,1.16,0,10.19,0,20.39.07,30.58,0,2.33.46,2.76,2.76,3a13.33,13.33,0,0,0,1.79.06c.63,0,.94.16.94.88s-.31.88-1,.84c-2.27-.15-4.54-.09-6.82-.19-2.46-.11-4.94.12-7.42.17-.47,0-1.12.31-1.17-.68s.39-1,1.13-1,1.59-.13,2.38-.17a1.81,1.81,0,0,0,1.82-1.84,26.9,26.9,0,0,0,.21-3.1q0-12.54,0-25.07a26.6,26.6,0,0,0-.21-3.1A2.15,2.15,0,0,0,183.45,69a19.27,19.27,0,0,0-2.15-.17c-.66,0-.88-.21-.88-.89s.31-.88.94-.86c3.84.13,7.67.3,11.5.2,2.67-.06,5.35-.18,8-.17a14.27,14.27,0,0,1,5.34,1.05c5.62,2.23,6.67,7.49,4.31,12.48-2.12,4.47-6,6.52-10.79,7.06a21.45,21.45,0,0,1-3,0C194.72,87.62,194.68,87.57,194.25,85.49Z" transform="translate(-19 -11.33)"/><path class="cls-2" d="M28.83,107.12a24.17,24.17,0,0,1-8.36-1.82c-.56-.22-.74-.45-.66-1.13a43.16,43.16,0,0,0,.32-6.82c0-.51-.13-1,.73-1s1.09.25,1.16,1a17.25,17.25,0,0,1,.22,2.14,3.64,3.64,0,0,0,1.88,3.15c3.83,2.62,10.64,3.21,14.8-.75,3.34-3.17,3.91-10.49-2.54-12.46-2.62-.79-5.34-.88-8-1.45a15.14,15.14,0,0,1-6.15-2.47,7,7,0,0,1-2.8-5.21c-.67-7.79,4.07-12.17,10.41-13.71,4.62-1.12,9,0,13.25,1.72a.68.68,0,0,1,.48.91,27.63,27.63,0,0,0-.65,6.41c0,.61-.14.89-.79.82S41,76.57,41,75.63a23.25,23.25,0,0,0-.25-2.74,3.38,3.38,0,0,0-1.12-2.17c-2.76-2.55-9.69-3.5-13.18,0a7.93,7.93,0,0,0-2.2,7.79c.56,2.49,2.49,3.65,4.78,4.39,2.61.83,5.35.81,8,1.39a22.38,22.38,0,0,1,4,1.18c4,1.66,5.4,4.73,4.91,9-.68,5.83-4.14,9.39-9.42,11.4A21.28,21.28,0,0,1,28.83,107.12Z" transform="translate(-19 -11.33)"/><path class="cls-2" d="M63.8,86.38V99.82c0,.28,0,.56,0,.84,0,3.16.49,3.62,3.68,3.74a7.88,7.88,0,0,0,1.08,0c.82-.07.74.46.77,1s-.3.72-.81.7c-2.31-.13-4.63-.08-6.94-.19-2.47-.1-5,.12-7.42.16-.49,0-1.13.31-1.19-.67s.44-1,1.15-1,1.67-.14,2.5-.2a1.68,1.68,0,0,0,1.66-1.59,14.54,14.54,0,0,0,.23-2.38q0-13.8,0-27.59c0-2.9-.06-2.9-3-2.89-2.12,0-4.24,0-6.35.06-1.57.08-1.85.45-1.95,2C47.13,73,47,74.21,47,75.4c0,.72-.33.74-.88.74s-.85,0-.88-.74c-.13-2.51,0-5-.39-7.53-.12-.91.47-.83,1-.82,3.64.07,7.27.17,10.9.2,4,0,8,.07,12,0,2.43-.06,4.87-.14,7.3-.19.84,0,1.06.17,1,1.08-.2,2.34-.23,4.7-.31,7.06,0,.53.1,1-.75,1-.68,0-1-.1-1-.89,0-1.16-.13-2.31-.18-3.47s-.49-1.94-1.76-2c-2.84,0-5.68,0-8.52-.07-.51,0-.55.3-.62.68a17.45,17.45,0,0,0-.16,3.23Q63.79,80,63.8,86.38Z" transform="translate(-19 -11.33)"/></svg>